<svg width="43" height="40" viewBox="0 0 43 40" fill="none" xmlns="http://www.w3.org/2000/svg">
<g clip-path="url(#clip0)">
<path d="M42.7055 14.1948C41.9878 10.8263 39.6901 8.0015 37.1019 5.6401C35.1199 3.83228 32.6908 2.50885 30.0468 1.73037C26.9903 0.829546 23.8396 0.694856 20.6636 0.843139C17.4041 0.993893 14.183 1.60803 11.2087 2.89068C5.5228 5.33982 0.825208 10.4074 0.0942362 16.3227C-0.318345 19.6603 0.612948 23.1288 3.10303 25.62C4.71488 27.2338 6.83881 28.3768 9.13388 28.776C9.19888 28.7661 9.2692 28.7735 9.34216 28.8081C9.34349 28.8093 9.34481 28.8093 9.34747 28.8106C10.0307 28.9156 10.7285 28.9539 11.4303 28.9193C10.7563 28.5659 9.98292 28.3991 9.22807 28.2656C8.80886 28.1915 8.98662 27.5959 9.40451 27.67C10.69 27.8986 12.0458 28.2743 12.8949 29.2665C13.6311 30.1278 13.8461 31.2362 14.1724 32.2656C14.577 33.542 15.3651 34.7629 16.9902 34.6863C18.6498 34.6084 19.5665 32.9996 19.008 31.6181C18.8567 31.2449 19.4988 31.0855 19.6474 31.4537C19.9791 32.2742 19.8835 33.2146 19.4179 33.9609C19.4604 33.9968 19.4922 34.0487 19.5055 34.1179C19.6819 35.0372 20.7047 35.2312 21.5604 35.2633C22.3285 35.2918 23.6843 35.3103 23.7706 34.3353C23.7719 34.3255 23.7745 34.318 23.7759 34.3094C23.1776 33.5346 23.0197 32.4843 23.3872 31.5773C23.5371 31.2078 24.1778 31.3697 24.0266 31.7416C23.4668 33.1231 24.3835 34.7308 26.0444 34.8098C27.6682 34.8865 28.4575 33.6644 28.8622 32.3891C29.1872 31.361 29.4021 30.2489 30.1397 29.3901C30.9914 28.3978 32.3432 28.0222 33.6301 27.7936C34.048 27.7194 34.2257 28.3151 33.8065 28.3892C33.0941 28.5152 32.3592 28.6746 31.7118 28.9897C35.1782 29.0688 38.4723 27.3673 40.498 24.7464C42.7811 21.7906 43.4577 17.7276 42.7055 14.1948ZM12.1321 25.1319C8.01819 25.1319 4.66978 22.0143 4.66978 18.1811C4.66978 14.3493 8.01686 11.2304 12.1321 11.2304C16.2473 11.2304 19.5943 14.348 19.5943 18.1811C19.593 22.0143 16.2459 25.1319 12.1321 25.1319ZM24.666 28.0247C24.3118 28.7648 23.4203 29.3073 22.5368 29.1603C22.1295 29.0923 21.774 28.8884 21.5193 28.6091C21.311 28.9218 20.9939 29.1677 20.5867 29.2777C19.719 29.5112 18.6803 28.986 18.3792 28.2014C17.9904 27.1881 18.9642 26.1106 19.5811 25.3642C20.3532 24.43 21.2566 23.507 21.5259 22.3207C21.571 22.1242 21.7568 22.0686 21.9173 22.1131C22.0605 22.0995 22.2118 22.1625 22.2609 22.3294C22.4439 22.9497 22.6257 23.5823 22.952 24.1532C23.2824 24.7315 23.809 25.1134 24.2375 25.6163C24.8067 26.2823 25.0508 27.2227 24.666 28.0247ZM30.1835 29.2739C30.1954 29.2628 30.2087 29.2517 30.2206 29.2406H30.275L30.1835 29.2739ZM31.4332 24.9466C27.3193 24.9466 23.9709 21.8289 23.9709 17.9958C23.9709 14.1639 27.318 11.045 31.4332 11.045C35.5484 11.045 38.8955 14.1627 38.8955 17.9958C38.8955 21.8289 35.5471 24.9466 31.4332 24.9466Z" fill="white"/>
<path d="M28.281 34.6769C27.6416 35.2317 26.7501 35.4875 25.8904 35.4159C25.8307 35.9806 25.4752 36.5181 24.8862 36.7356C24.0822 37.0322 22.9904 36.8789 22.1533 36.8826C20.6105 36.89 17.53 37.2496 17.2063 35.2861C16.3294 35.3751 15.4114 35.123 14.7547 34.5546C13.7093 33.6488 13.5249 32.2488 13.1124 31.0452C12.9041 30.4385 12.6215 29.8738 12.1559 29.4302C12.1081 29.4648 12.0497 29.4895 11.9781 29.4969C11.4541 29.5513 10.9314 29.5649 10.4087 29.5439C12.2156 31.2961 11.8441 34.4508 12.4663 36.6318C12.8762 38.0677 13.8699 39.1785 15.4446 39.5591C16.7367 39.8718 17.8988 39.59 18.9111 38.8128C19.5545 38.3197 20.3451 37.9379 21.1676 37.7983C22.5593 37.5623 23.4972 38.1196 24.5094 38.9289C25.6463 39.8396 27.3033 39.8483 28.6074 39.2589C30.1834 38.5471 30.8056 37.1372 30.982 35.5926C31.2009 33.676 31.2567 31.0774 32.7889 29.5822C32.1627 29.6291 31.5299 29.6242 30.8945 29.5575C30.8865 29.5562 30.8799 29.555 30.8733 29.5537C30.4089 29.9986 30.129 30.5682 29.9234 31.1676C29.5121 32.3699 29.3264 33.7712 28.281 34.6769Z" fill="white"/>
</g>
<defs>
<clipPath id="clip0">
<rect width="43" height="38.8922" fill="white" transform="translate(0 0.790527)"/>
</clipPath>
</defs>
</svg>
